<?xml version="1.0" standalone="no"?>
<!DOCTYPE svg PUBLIC "-//W3C//DTD SVG 20010904//EN"
 "http://www.w3.org/TR/2001/REC-SVG-20010904/DTD/svg10.dtd">
<svg version="1.0" xmlns="http://www.w3.org/2000/svg"
 width="500.000000pt" height="500.000000pt" viewBox="0 0 500.000000 500.000000"
 preserveAspectRatio="xMidYMid meet">
<metadata>
Created by potrace 1.11, written by Peter Selinger 2001-2013
</metadata>
<g transform="translate(0.000000,500.000000) scale(0.100000,-0.100000)"
fill="#000000" stroke="none">
<path d="M914 4218 c3 -45 8 -148 11 -228 3 -80 7 -194 10 -255 3 -60 10 -225
15 -365 6 -140 12 -304 15 -365 12 -294 29 -716 40 -1005 3 -80 8 -174 10
-210 2 -36 7 -156 11 -267 4 -111 8 -212 9 -225 1 -13 3 -47 4 -76 l1 -54 238
-115 c130 -63 282 -137 337 -163 117 -56 328 -158 610 -295 110 -53 210 -101
222 -106 19 -7 156 52 743 320 396 181 722 330 725 332 6 7 14 118 20 299 3
91 8 197 10 235 2 39 7 142 10 230 3 88 8 196 10 240 2 44 7 148 10 230 3 83
7 191 10 240 3 50 7 149 10 220 3 72 7 175 10 230 3 55 7 156 10 225 11 268
25 601 30 730 3 74 8 165 11 203 3 37 4 67 2 68 -2 0 -711 3 -1576 6 l-1574 5
6 -84z"/>
</g>
</svg>
